# xmcd
#
# Track frame offsets:
#	150
#	16312
#	36342
#	58378
#	71322
#	84573
#	102050
#	126144
#	138615
#	164349
#	177452
#	191425
#	207523
#	222354
#	241988
#	256741
#	268425
#	282536
#	302823
#
# Disc length: 4382 seconds
#
# Revision: 1
# Processed by: cddbd v1.5PL3 Copyright (c) Steve Scherf et al.
# Submitted via: audiograbber 1.81.02
#
DISCID=27111c13
DTITLE=Scotch Breeze Whistle - Scotch Breeze Whistle
DYEAR=1900
DGENRE=
TTITLE0=The Twistinf of the Rope
TTITLE1=Wallace Courts Murron
TTITLE2=The Edge of the Wbite Rock
TTITLE3=Main The
TTITLE4=Madame Boadarte
TTITLE5=Down by the Sally Gardens
TTITLE6=Green Sleeves
TTITLE7=The Rvggle Taggle Gyposies
TTITLE8=Once Upon a Time
TTITLE9=The Rocky Road to Dublin
TTITLE10=Quiet Heart
TTITLE11=Four Green Fields
TTITLE12=Emanvel
TTITLE13=Solsbury Hitt
TTITLE14=The Town I Love So Well
TTITLE15=Oh Waly Waly
TTITLE16=Give Me Your Hand
TTITLE17=Don't Be Afraid to Love Me
TTITLE18=All My Heart
EXTD=
EXTT0=
EXTT1=
EXTT2=
EXTT3=
EXTT4=
EXTT5=
EXTT6=
EXTT7=
EXTT8=
EXTT9=
EXTT10=
EXTT11=
EXTT12=
EXTT13=
EXTT14=
EXTT15=
EXTT16=
EXTT17=
EXTT18=
PLAYORDER=
